<?xml version="1.0" encoding="UTF-8" standalone="no"?>
<!-- Created with Inkscape (http://www.inkscape.org/) -->

<svg
   width="210mm"
   height="297mm"
   viewBox="0 0 210 297"
   version="1.1"
   id="svg1"
   xmlns="http://www.w3.org/2000/svg"
   xmlns:svg="http://www.w3.org/2000/svg">
  <defs
     id="defs1" />
  <g
     id="layer1">
    <g
       id="g1">
      <path
         d="m 82.386519,128.43841 c -0.25608,0 -0.473851,0.0895 -0.653102,0.26878 -0.07039,0.0704 -0.124457,0.14765 -0.166341,0.23025 1.406064,0.86237 2.633271,2.01885 3.550534,3.39088 0.678049,0.97208 1.179803,2.05004 1.515034,3.17865 h 1.528888 c 0.281703,0 0.499431,0.0897 0.653087,0.26901 0.179294,0.17926 0.268807,0.39678 0.268807,0.65289 v 19.20798 c 0,0.2561 0.08968,0.47385 0.268976,0.65313 0.179293,0.17926 0.397022,0.26876 0.653143,0.26876 h 5.7623 c 0.281703,0 0.499432,-0.0895 0.653102,-0.26876 0.17928,-0.17928 0.269018,-0.39703 0.269018,-0.65313 v -19.20798 c 0,-0.25611 0.08954,-0.47363 0.268764,-0.65289 0.17928,-0.17928 0.397009,-0.26901 0.65313,-0.26901 h 5.698411 c 0.2817,0 0.49943,-0.0895 0.6531,-0.26878 0.17929,-0.17926 0.26881,-0.397 0.26881,-0.65311 v -5.22477 c 0,-0.2561 -0.0895,-0.47385 -0.26881,-0.65312 -0.15367,-0.17928 -0.3714,-0.26878 -0.6531,-0.26878 z"
         style="font-size:63.5px;line-height:0px;font-family:Heavitas;-inkscape-font-specification:Heavitas;text-align:center;letter-spacing:0px;text-anchor:middle;display:inline;stroke-width:0"
         id="path301" />
      <path
         d="m 136.90079,128.21118 v 2.3e-4 2.2e-4 c -1.98586,0 -3.85582,0.38627 -5.60956,1.15998 -1.72795,0.74793 -3.24964,1.78006 -4.56494,3.09537 -1.2895,1.28952 -2.30823,2.81096 -3.05615,4.56471 -0.74793,1.75376 -1.12192,3.62349 -1.12192,5.60935 0,1.98586 0.29667,3.85561 0.88986,5.60935 0.61898,1.72796 1.54758,3.24985 2.78552,4.56518 1.26374,1.28952 2.84976,2.32096 4.75825,3.09466 2.42533,0.95047 4.35061,1.11798 4.9274,1.11222 1.1828,0.0318 3.83439,-0.0562 6.25507,-1.33531 0.2677,0.32479 0.49805,0.62787 0.75927,0.95789 0.21183,0.21878 0.50711,0.37882 0.78577,0.37882 2.04257,0.004 3.65787,-0.003 5.70046,0.004 v 0.004 h 1.21651 c 0,0 -8e-5,-2.4e-4 0.004,-2.4e-4 h 0.18227 c 0.20626,0 0.38162,-0.0905 0.526,-0.27108 0.1443,-0.18037 0.21662,-0.39941 0.21662,-0.65704 v -2.4e-4 -2.3e-4 -5.21806 -4.6e-4 c 0,-0.25789 -0.0722,-0.47697 -0.21662,-0.6575 -0.14438,-0.18052 -0.31974,-0.27108 -0.526,-0.27108 h -0.28861 l -1.02642,-0.006 c -0.69569,0.0527 -1.05302,-0.31276 -0.526,-0.92673 0.67056,-0.80679 1.22517,-1.71507 1.66363,-2.82406 0.43844,-1.13478 0.6575,-2.32092 0.6575,-3.55885 0,-1.98586 -0.37401,-3.8556 -1.12194,-5.60935 -0.74788,-1.75374 -1.77956,-3.27565 -3.09485,-4.56518 -1.28955,-1.3153 -2.81098,-2.34696 -4.56472,-3.09489 -1.75375,-0.77371 -3.62349,-1.16044 -5.60939,-1.16044 z m 0,7.54403 c 0.92847,0 1.79268,0.18063 2.59222,0.5417 0.82529,0.36106 1.54687,0.86359 2.16585,1.50834 0.61895,0.61896 1.09624,1.35399 1.43151,2.20507 0.36109,0.82528 0.5415,1.70227 0.5415,2.63072 0,0.92846 -0.18041,1.8052 -0.5415,2.63049 -0.0156,0.038 -0.0358,0.0729 -0.0517,0.11051 l -1.07324,-1.3577 -0.22402,-0.28353 c -0.15995,-0.20233 -0.36657,-0.31823 -0.62015,-0.3479 -0.0633,-0.007 -0.1253,-0.008 -0.18544,-0.004 -0.18055,0.0127 -0.34609,0.0801 -0.4981,0.19979 l -4.05555,3.19226 c -0.20264,0.15951 -0.31872,0.36654 -0.34841,0.62013 -0.0294,0.25357 0.0358,0.48171 0.19541,0.68403 l 0.22425,0.28331 0.73251,0.92651 c -0.61363,0.006 -1.80276,0.13924 -2.91588,-0.34767 -0.79948,-0.38686 -1.50878,-0.89007 -2.12777,-1.50904 -0.61895,-0.61897 -1.109,-1.34078 -1.47009,-2.16608 -0.33528,-0.8253 -0.50269,-1.70249 -0.50269,-2.63095 0,-0.92845 0.16741,-1.8052 0.50269,-2.6305 0.36109,-0.85107 0.85114,-1.58586 1.47009,-2.20484 0.61899,-0.64475 1.32829,-1.14773 2.12777,-1.50881 0.82534,-0.36105 1.70224,-0.54145 2.6307,-0.54145 z"
         style="font-size:63.5px;line-height:0px;font-family:Heavitas;-inkscape-font-specification:Heavitas;text-align:center;letter-spacing:0px;text-anchor:middle;display:inline;stroke-width:0"
         id="path300" />
      <path
         d="m 63.52642,128.18787 c -0.261881,0 -0.484565,0.0916 -0.667874,0.275 -0.183308,0.18333 -0.274783,0.40576 -0.274783,0.66766 v 26.87061 c 0,0.26189 0.09147,0.48456 0.274783,0.66788 0.183309,0.18332 0.405993,0.275 0.667874,0.275 h 5.93212 c 0.261882,0 0.484344,-0.0916 0.667651,-0.275 0.183309,-0.18332 0.275008,-0.40599 0.275008,-0.66788 v -5.85343 c 0,-0.26191 0.09165,-0.48434 0.275007,-0.66766 0.183309,-0.18334 0.405992,-0.27501 0.667869,-0.27501 h 3.417687 c 1.911831,0 3.57496,-0.26199 4.98919,-0.78578 1.440445,-0.54997 2.632174,-1.28335 3.575003,-2.19999 0.969002,-0.94283 1.689105,-2.04267 2.160547,-3.29976 0.471401,-1.2833 0.707123,-2.65839 0.707123,-4.12501 0,-1.46662 -0.288053,-2.84145 -0.864228,-4.12477 -0.550017,-1.28328 -1.309441,-2.40941 -2.278443,-3.37842 -0.942844,-0.96903 -2.068937,-1.72869 -3.378435,-2.27868 -1.283297,-0.54997 -2.658374,-0.82476 -4.124977,-0.82476 z m 7.817655,7.22821 h 3.692646 c 0.550016,0 1.034665,0.10489 1.453693,0.31445 0.419041,0.18332 0.772433,0.43205 1.060528,0.74632 0.28808,0.31428 0.497728,0.68098 0.628675,1.1 0.157147,0.39284 0.235806,0.79862 0.235806,1.21765 0,0.81188 -0.235722,1.54526 -0.707108,2.20001 -0.445243,0.62855 -1.165571,0.94289 -2.160773,0.94289 h -4.203467 c -0.261877,0 -0.48456,-0.0917 -0.667869,-0.275 -0.183352,-0.18332 -0.275007,-0.406 -0.275007,-0.66789 v -4.63554 c 0,-0.26191 0.09165,-0.48457 0.275007,-0.6679 0.183309,-0.18332 0.405992,-0.27499 0.667869,-0.27499 z"
         style="font-size:63.5px;line-height:0px;font-family:Heavitas;-inkscape-font-specification:Heavitas;text-align:center;letter-spacing:0px;text-anchor:middle;stroke-width:0"
         id="path299" />
      <path
         d="m 104.34888,127.81667 c 0.32758,0.21971 0.58925,0.53516 0.71679,0.91313 0.16554,0.94677 0.0833,1.92797 0.11165,2.88887 -0.0304,1.0443 0.0175,2.09261 -0.006,3.13366 -0.0988,0.93258 -0.93377,1.78318 -1.9116,1.66823 -0.90565,0.0325 -1.81393,0.0325 -2.72163,0.0284 v 18.66559 c 0,0.25704 0.0901,0.47574 0.26996,0.65567 0.17995,0.17992 0.39818,0.26992 0.65518,0.26992 h 5.7452 c 0.25706,0 0.47533,-0.09 0.65524,-0.26992 0.17997,-0.17993 0.26992,-0.39863 0.26992,-0.65567 v -13.80304 c 0,-0.25699 0.0772,-0.3985 0.2314,-0.42426 0.17991,-0.0514 0.34706,0.0258 0.5013,0.2314 l 10.06312,14.15047 c 0.15425,0.20564 0.37287,0.3854 0.65564,0.53962 0.28273,0.15423 0.55248,0.2314 0.80953,0.2314 h 5.70627 c 0.25702,0 0.47572,-0.09 0.65565,-0.26992 0.17995,-0.17993 0.2699,-0.39863 0.2699,-0.65567 v -0.34305 c -1.98072,-1.52717 -3.52334,-3.61871 -4.38104,-5.97247 -1.36436,-3.87035 -1.45955,-8.27513 0.13952,-12.09192 0.90953,-2.2423 2.39966,-4.21089 4.24149,-5.76714 v -2.19793 c 0,-0.25704 -0.09,-0.47572 -0.26991,-0.65565 -0.17992,-0.17994 -0.39863,-0.26969 -0.65565,-0.26969 h -5.70626 c -0.25706,0 -0.47551,0.0897 -0.65542,0.26969 -0.17996,0.17993 -0.26969,0.39861 -0.26969,0.65565 v 13.80328 c 0,0.25698 -0.0903,0.3985 -0.27015,0.42427 -0.15425,0.0256 -0.30831,-0.0645 -0.46256,-0.27016 l -10.02481,-14.15026 c -0.15425,-0.20563 -0.37268,-0.37279 -0.65541,-0.50131 -0.28279,-0.15424 -0.55252,-0.23116 -0.80959,-0.23116 z"
         style="font-size:63.5px;line-height:0px;font-family:Heavitas;-inkscape-font-specification:Heavitas;text-align:center;letter-spacing:0px;text-anchor:middle;stroke-width:0"
         id="path298" />
    </g>
  </g>
</svg>
